<svg xmlns="http://www.w3.org/2000/svg" width="900" height="420" viewBox="0 0 900 420">
  <rect width="100%" height="100%" fill="#0b1220"/>
  <text x="40" y="52" fill="#ffffff" font-size="22" font-weight="700" font-family="Inter,Segoe UI,Arial">
    Languages — usage distribution
  </text>
  <text x="40" y="80" fill="#9ca3af" font-size="12" font-family="Inter,Segoe UI,Arial">
    Aggregated across non-fork, non-archived repositories • Updated 2026-03-01 04:57 UTC
  </text>

  <g>
    <path d="M 220.00 60.00 A 150.00 150.00 0 0 1 334.19 307.26 L 292.32 271.60 A 95.00 95.00 0 0 0 220.00 115.00 Z" fill="#4ade80" /><path d="M 334.19 307.26 A 150.00 150.00 0 0 1 223.53 359.96 L 222.24 304.97 A 95.00 95.00 0 0 0 292.32 271.60 Z" fill="#22c55e" /><path d="M 223.53 359.96 A 150.00 150.00 0 0 1 120.30 322.07 L 156.85 280.98 A 95.00 95.00 0 0 0 222.24 304.97 Z" fill="#16a34a" /><path d="M 120.30 322.07 A 150.00 150.00 0 0 1 79.89 263.56 L 131.26 243.92 A 95.00 95.00 0 0 0 156.85 280.98 Z" fill="#86efac" /><path d="M 79.89 263.56 A 150.00 150.00 0 0 1 70.82 194.34 L 125.52 200.08 A 95.00 95.00 0 0 0 131.26 243.92 Z" fill="#10b981" /><path d="M 70.82 194.34 A 150.00 150.00 0 0 1 89.09 136.77 L 137.09 163.62 A 95.00 95.00 0 0 0 125.52 200.08 Z" fill="#34d399" /><path d="M 89.09 136.77 A 150.00 150.00 0 0 1 117.29 100.68 L 154.95 140.76 A 95.00 95.00 0 0 0 137.09 163.62 Z" fill="#059669" /><path d="M 117.29 100.68 A 150.00 150.00 0 0 1 142.37 81.65 L 170.83 128.71 A 95.00 95.00 0 0 0 154.95 140.76 Z" fill="#6ee7b7" /><path d="M 142.37 81.65 A 150.00 150.00 0 0 1 220.00 60.00 L 220.00 115.00 A 95.00 95.00 0 0 0 170.83 128.71 Z" fill="#bbf7d0" />
    <circle cx="220" cy="210" r="95" fill="#0b1220"/>
    <text x="220" y="204" text-anchor="middle" fill="#ffffff" font-size="22" font-weight="700" font-family="Inter,Segoe UI,Arial">Top Languages</text>
    <text x="220" y="228" text-anchor="middle" fill="#9ca3af" font-size="12" font-family="Inter,Segoe UI,Arial">amine9812</text>
  </g>

  <text x="460" y="78" fill="#ffffff" font-size="16" font-weight="700" font-family="Inter,Segoe UI,Arial">
    Breakdown
  </text>
  <g>
    <rect x="460" y="98" width="14" height="14" rx="3" fill="#4ade80"/><text x="482" y="110" fill="#e5e7eb" font-size="14" font-family="Inter,Segoe UI,Arial">TypeScript • 36.2%</text><rect x="460" y="126" width="14" height="14" rx="3" fill="#22c55e"/><text x="482" y="138" fill="#e5e7eb" font-size="14" font-family="Inter,Segoe UI,Arial">C++ • 13.4%</text><rect x="460" y="154" width="14" height="14" rx="3" fill="#16a34a"/><text x="482" y="166" fill="#e5e7eb" font-size="14" font-family="Inter,Segoe UI,Arial">Makefile • 11.9%</text><rect x="460" y="182" width="14" height="14" rx="3" fill="#86efac"/><text x="482" y="194" fill="#e5e7eb" font-size="14" font-family="Inter,Segoe UI,Arial">Python • 7.6%</text><rect x="460" y="210" width="14" height="14" rx="3" fill="#10b981"/><text x="482" y="222" fill="#e5e7eb" font-size="14" font-family="Inter,Segoe UI,Arial">PHP • 7.5%</text><rect x="460" y="238" width="14" height="14" rx="3" fill="#34d399"/><text x="482" y="250" fill="#e5e7eb" font-size="14" font-family="Inter,Segoe UI,Arial">Blade • 6.5%</text><rect x="460" y="266" width="14" height="14" rx="3" fill="#059669"/><text x="482" y="278" fill="#e5e7eb" font-size="14" font-family="Inter,Segoe UI,Arial">Java • 4.9%</text><rect x="460" y="294" width="14" height="14" rx="3" fill="#6ee7b7"/><text x="482" y="306" fill="#e5e7eb" font-size="14" font-family="Inter,Segoe UI,Arial">HTML • 3.3%</text><rect x="460" y="322" width="14" height="14" rx="3" fill="#bbf7d0"/><text x="482" y="334" fill="#e5e7eb" font-size="14" font-family="Inter,Segoe UI,Arial">Other • 8.7%</text>
  </g>
</svg>
