<svg xmlns="http://www.w3.org/2000/svg" width="900" height="420" viewBox="0 0 900 420">
  <rect width="100%" height="100%" fill="#0b1220"/>
  <text x="40" y="52" fill="#ffffff" font-size="22" font-weight="700" font-family="Inter,Segoe UI,Arial">
    Languages — usage distribution
  </text>
  <text x="40" y="80" fill="#9ca3af" font-size="12" font-family="Inter,Segoe UI,Arial">
    Aggregated across non-fork, non-archived repositories • Updated 2026-08-07 04:57 UTC
  </text>

  <g>
    <path d="M 220.00 60.00 A 150.00 150.00 0 1 1 71.21 229.02 L 125.77 222.04 A 95.00 95.00 0 1 0 220.00 115.00 Z" fill="#4ade80" /><path d="M 71.21 229.02 A 150.00 150.00 0 0 1 76.78 165.43 L 129.29 181.77 A 95.00 95.00 0 0 0 125.77 222.04 Z" fill="#22c55e" /><path d="M 76.78 165.43 A 150.00 150.00 0 0 1 97.03 124.10 L 142.12 155.59 A 95.00 95.00 0 0 0 129.29 181.77 Z" fill="#16a34a" /><path d="M 97.03 124.10 A 150.00 150.00 0 0 1 117.87 100.14 L 155.31 140.42 A 95.00 95.00 0 0 0 142.12 155.59 Z" fill="#86efac" /><path d="M 117.87 100.14 A 150.00 150.00 0 0 1 135.01 86.40 L 166.17 131.72 A 95.00 95.00 0 0 0 155.31 140.42 Z" fill="#10b981" /><path d="M 135.01 86.40 A 150.00 150.00 0 0 1 151.89 76.36 L 176.86 125.36 A 95.00 95.00 0 0 0 166.17 131.72 Z" fill="#34d399" /><path d="M 151.89 76.36 A 150.00 150.00 0 0 1 169.22 68.86 L 187.84 120.61 A 95.00 95.00 0 0 0 176.86 125.36 Z" fill="#059669" /><path d="M 169.22 68.86 A 150.00 150.00 0 0 1 186.02 63.90 L 198.48 117.47 A 95.00 95.00 0 0 0 187.84 120.61 Z" fill="#6ee7b7" /><path d="M 186.02 63.90 A 150.00 150.00 0 0 1 220.00 60.00 L 220.00 115.00 A 95.00 95.00 0 0 0 198.48 117.47 Z" fill="#bbf7d0" />
    <circle cx="220" cy="210" r="95" fill="#0b1220"/>
    <text x="220" y="204" text-anchor="middle" fill="#ffffff" font-size="22" font-weight="700" font-family="Inter,Segoe UI,Arial">Top Languages</text>
    <text x="220" y="228" text-anchor="middle" fill="#9ca3af" font-size="12" font-family="Inter,Segoe UI,Arial">amine9812</text>
  </g>

  <text x="460" y="78" fill="#ffffff" font-size="16" font-weight="700" font-family="Inter,Segoe UI,Arial">
    Breakdown
  </text>
  <g>
    <rect x="460" y="98" width="14" height="14" rx="3" fill="#4ade80"/><text x="482" y="110" fill="#e5e7eb" font-size="14" font-family="Inter,Segoe UI,Arial">Python • 73.0%</text><rect x="460" y="126" width="14" height="14" rx="3" fill="#22c55e"/><text x="482" y="138" fill="#e5e7eb" font-size="14" font-family="Inter,Segoe UI,Arial">TypeScript • 6.8%</text><rect x="460" y="154" width="14" height="14" rx="3" fill="#16a34a"/><text x="482" y="166" fill="#e5e7eb" font-size="14" font-family="Inter,Segoe UI,Arial">HTML • 4.9%</text><rect x="460" y="182" width="14" height="14" rx="3" fill="#86efac"/><text x="482" y="194" fill="#e5e7eb" font-size="14" font-family="Inter,Segoe UI,Arial">Java • 3.4%</text><rect x="460" y="210" width="14" height="14" rx="3" fill="#10b981"/><text x="482" y="222" fill="#e5e7eb" font-size="14" font-family="Inter,Segoe UI,Arial">CSS • 2.3%</text><rect x="460" y="238" width="14" height="14" rx="3" fill="#34d399"/><text x="482" y="250" fill="#e5e7eb" font-size="14" font-family="Inter,Segoe UI,Arial">C++ • 2.1%</text><rect x="460" y="266" width="14" height="14" rx="3" fill="#059669"/><text x="482" y="278" fill="#e5e7eb" font-size="14" font-family="Inter,Segoe UI,Arial">JavaScript • 2.0%</text><rect x="460" y="294" width="14" height="14" rx="3" fill="#6ee7b7"/><text x="482" y="306" fill="#e5e7eb" font-size="14" font-family="Inter,Segoe UI,Arial">Makefile • 1.9%</text><rect x="460" y="322" width="14" height="14" rx="3" fill="#bbf7d0"/><text x="482" y="334" fill="#e5e7eb" font-size="14" font-family="Inter,Segoe UI,Arial">Other • 3.6%</text>
  </g>
</svg>
