<svg xmlns="http://www.w3.org/2000/svg" width="900" height="420" viewBox="0 0 900 420">
  <rect width="100%" height="100%" fill="#0b1220"/>
  <text x="40" y="52" fill="#ffffff" font-size="22" font-weight="700" font-family="Inter,Segoe UI,Arial">
    Languages — usage distribution
  </text>
  <text x="40" y="80" fill="#9ca3af" font-size="12" font-family="Inter,Segoe UI,Arial">
    Aggregated across non-fork, non-archived repositories • Updated 2026-06-28 07:05 UTC
  </text>

  <g>
    <path d="M 220.00 60.00 A 150.00 150.00 0 1 1 70.22 218.06 L 125.14 215.11 A 95.00 95.00 0 1 0 220.00 115.00 Z" fill="#4ade80" /><path d="M 70.22 218.06 A 150.00 150.00 0 0 1 82.54 149.95 L 132.94 171.97 A 95.00 95.00 0 0 0 125.14 215.11 Z" fill="#22c55e" /><path d="M 82.54 149.95 A 150.00 150.00 0 0 1 99.87 120.17 L 143.92 153.11 A 95.00 95.00 0 0 0 132.94 171.97 Z" fill="#16a34a" /><path d="M 99.87 120.17 A 150.00 150.00 0 0 1 122.90 95.67 L 158.50 137.59 A 95.00 95.00 0 0 0 143.92 153.11 Z" fill="#86efac" /><path d="M 122.90 95.67 A 150.00 150.00 0 0 1 140.09 83.06 L 169.39 129.60 A 95.00 95.00 0 0 0 158.50 137.59 Z" fill="#10b981" /><path d="M 140.09 83.06 A 150.00 150.00 0 0 1 156.80 73.97 L 179.97 123.84 A 95.00 95.00 0 0 0 169.39 129.60 Z" fill="#34d399" /><path d="M 156.80 73.97 A 150.00 150.00 0 0 1 174.06 67.21 L 190.90 119.57 A 95.00 95.00 0 0 0 179.97 123.84 Z" fill="#059669" /><path d="M 174.06 67.21 A 150.00 150.00 0 0 1 190.98 62.83 L 201.62 116.79 A 95.00 95.00 0 0 0 190.90 119.57 Z" fill="#6ee7b7" /><path d="M 190.98 62.83 A 150.00 150.00 0 0 1 220.00 60.00 L 220.00 115.00 A 95.00 95.00 0 0 0 201.62 116.79 Z" fill="#bbf7d0" />
    <circle cx="220" cy="210" r="95" fill="#0b1220"/>
    <text x="220" y="204" text-anchor="middle" fill="#ffffff" font-size="22" font-weight="700" font-family="Inter,Segoe UI,Arial">Top Languages</text>
    <text x="220" y="228" text-anchor="middle" fill="#9ca3af" font-size="12" font-family="Inter,Segoe UI,Arial">amine9812</text>
  </g>

  <text x="460" y="78" fill="#ffffff" font-size="16" font-weight="700" font-family="Inter,Segoe UI,Arial">
    Breakdown
  </text>
  <g>
    <rect x="460" y="98" width="14" height="14" rx="3" fill="#4ade80"/><text x="482" y="110" fill="#e5e7eb" font-size="14" font-family="Inter,Segoe UI,Arial">Python • 74.1%</text><rect x="460" y="126" width="14" height="14" rx="3" fill="#22c55e"/><text x="482" y="138" fill="#e5e7eb" font-size="14" font-family="Inter,Segoe UI,Arial">TypeScript • 7.4%</text><rect x="460" y="154" width="14" height="14" rx="3" fill="#16a34a"/><text x="482" y="166" fill="#e5e7eb" font-size="14" font-family="Inter,Segoe UI,Arial">Java • 3.7%</text><rect x="460" y="182" width="14" height="14" rx="3" fill="#86efac"/><text x="482" y="194" fill="#e5e7eb" font-size="14" font-family="Inter,Segoe UI,Arial">HTML • 3.6%</text><rect x="460" y="210" width="14" height="14" rx="3" fill="#10b981"/><text x="482" y="222" fill="#e5e7eb" font-size="14" font-family="Inter,Segoe UI,Arial">C++ • 2.3%</text><rect x="460" y="238" width="14" height="14" rx="3" fill="#34d399"/><text x="482" y="250" fill="#e5e7eb" font-size="14" font-family="Inter,Segoe UI,Arial">Makefile • 2.0%</text><rect x="460" y="266" width="14" height="14" rx="3" fill="#059669"/><text x="482" y="278" fill="#e5e7eb" font-size="14" font-family="Inter,Segoe UI,Arial">JavaScript • 2.0%</text><rect x="460" y="294" width="14" height="14" rx="3" fill="#6ee7b7"/><text x="482" y="306" fill="#e5e7eb" font-size="14" font-family="Inter,Segoe UI,Arial">CSS • 1.9%</text><rect x="460" y="322" width="14" height="14" rx="3" fill="#bbf7d0"/><text x="482" y="334" fill="#e5e7eb" font-size="14" font-family="Inter,Segoe UI,Arial">Other • 3.1%</text>
  </g>
</svg>
