<svg xmlns="http://www.w3.org/2000/svg" width="900" height="420" viewBox="0 0 900 420">
  <rect width="100%" height="100%" fill="#0b1220"/>
  <text x="40" y="52" fill="#ffffff" font-size="22" font-weight="700" font-family="Inter,Segoe UI,Arial">
    Languages — usage distribution
  </text>
  <text x="40" y="80" fill="#9ca3af" font-size="12" font-family="Inter,Segoe UI,Arial">
    Aggregated across non-fork, non-archived repositories • Updated 2026-08-27 13:58 UTC
  </text>

  <g>
    <path d="M 220.00 60.00 A 150.00 150.00 0 1 1 77.45 256.68 L 129.72 239.56 A 95.00 95.00 0 1 0 220.00 115.00 Z" fill="#4ade80" /><path d="M 77.45 256.68 A 150.00 150.00 0 0 1 74.24 174.59 L 127.69 187.57 A 95.00 95.00 0 0 0 129.72 239.56 Z" fill="#22c55e" /><path d="M 74.24 174.59 A 150.00 150.00 0 0 1 100.54 119.29 L 144.34 152.55 A 95.00 95.00 0 0 0 127.69 187.57 Z" fill="#16a34a" /><path d="M 100.54 119.29 A 150.00 150.00 0 0 1 121.31 97.04 L 157.50 138.46 A 95.00 95.00 0 0 0 144.34 152.55 Z" fill="#86efac" /><path d="M 121.31 97.04 A 150.00 150.00 0 0 1 138.11 84.33 L 168.13 130.41 A 95.00 95.00 0 0 0 157.50 138.46 Z" fill="#10b981" /><path d="M 138.11 84.33 A 150.00 150.00 0 0 1 154.50 75.06 L 178.52 124.54 A 95.00 95.00 0 0 0 168.13 130.41 Z" fill="#34d399" /><path d="M 154.50 75.06 A 150.00 150.00 0 0 1 171.24 68.15 L 189.12 120.16 A 95.00 95.00 0 0 0 178.52 124.54 Z" fill="#059669" /><path d="M 171.24 68.15 A 150.00 150.00 0 0 1 187.40 63.58 L 199.35 117.27 A 95.00 95.00 0 0 0 189.12 120.16 Z" fill="#6ee7b7" /><path d="M 187.40 63.58 A 150.00 150.00 0 0 1 220.00 60.00 L 220.00 115.00 A 95.00 95.00 0 0 0 199.35 117.27 Z" fill="#bbf7d0" />
    <circle cx="220" cy="210" r="95" fill="#0b1220"/>
    <text x="220" y="204" text-anchor="middle" fill="#ffffff" font-size="22" font-weight="700" font-family="Inter,Segoe UI,Arial">Top Languages</text>
    <text x="220" y="228" text-anchor="middle" fill="#9ca3af" font-size="12" font-family="Inter,Segoe UI,Arial">amine9812</text>
  </g>

  <text x="460" y="78" fill="#ffffff" font-size="16" font-weight="700" font-family="Inter,Segoe UI,Arial">
    Breakdown
  </text>
  <g>
    <rect x="460" y="98" width="14" height="14" rx="3" fill="#4ade80"/><text x="482" y="110" fill="#e5e7eb" font-size="14" font-family="Inter,Segoe UI,Arial">Python • 70.0%</text><rect x="460" y="126" width="14" height="14" rx="3" fill="#22c55e"/><text x="482" y="138" fill="#e5e7eb" font-size="14" font-family="Inter,Segoe UI,Arial">HTML • 8.8%</text><rect x="460" y="154" width="14" height="14" rx="3" fill="#16a34a"/><text x="482" y="166" fill="#e5e7eb" font-size="14" font-family="Inter,Segoe UI,Arial">TypeScript • 6.5%</text><rect x="460" y="182" width="14" height="14" rx="3" fill="#86efac"/><text x="482" y="194" fill="#e5e7eb" font-size="14" font-family="Inter,Segoe UI,Arial">Java • 3.2%</text><rect x="460" y="210" width="14" height="14" rx="3" fill="#10b981"/><text x="482" y="222" fill="#e5e7eb" font-size="14" font-family="Inter,Segoe UI,Arial">CSS • 2.2%</text><rect x="460" y="238" width="14" height="14" rx="3" fill="#34d399"/><text x="482" y="250" fill="#e5e7eb" font-size="14" font-family="Inter,Segoe UI,Arial">C++ • 2.0%</text><rect x="460" y="266" width="14" height="14" rx="3" fill="#059669"/><text x="482" y="278" fill="#e5e7eb" font-size="14" font-family="Inter,Segoe UI,Arial">JavaScript • 1.9%</text><rect x="460" y="294" width="14" height="14" rx="3" fill="#6ee7b7"/><text x="482" y="306" fill="#e5e7eb" font-size="14" font-family="Inter,Segoe UI,Arial">Makefile • 1.8%</text><rect x="460" y="322" width="14" height="14" rx="3" fill="#bbf7d0"/><text x="482" y="334" fill="#e5e7eb" font-size="14" font-family="Inter,Segoe UI,Arial">Other • 3.5%</text>
  </g>
</svg>
